<svg width="10" height="22" viewBox="0 0 10 22" fill="none" xmlns="http://www.w3.org/2000/svg">
<path d="M9.7243 0H6.06119C3.93812 0 2.20007 1.79293 2.20007 3.95797V7.11533H0.286009C0.121004 7.11533 0 7.23936 0 7.40851V10.6448C0 10.8139 0.121004 10.938 0.286009 10.938H2.20007V11.062H2.24407V21.7068C2.24407 21.876 2.36507 22 2.53008 22H6.35819C6.5232 22 6.6442 21.876 6.6442 21.7068V10.9042H9.42729C9.54829 10.9042 9.6803 10.7801 9.6803 10.6448L9.9333 7.40851C9.9333 7.23936 9.8123 7.11533 9.6803 7.11533H6.6002V4.81497C6.6002 4.26243 7.01822 3.83393 7.55723 3.83393H9.7133C9.8783 3.83393 9.99931 3.70989 9.99931 3.54075V0.304459C10.0103 0.124039 9.8893 0 9.7243 0Z" fill="white"/>
</svg>
