<svg width="17" height="25" viewBox="0 0 17 25" fill="none" xmlns="http://www.w3.org/2000/svg">
<path fill-rule="evenodd" clip-rule="evenodd" d="M13.0135 16.4277C14.6887 13.4115 15.8 10.5185 15.8 8.5C15.8 4.46832 12.5317 1.2 8.5 1.2C4.46832 1.2 1.2 4.46832 1.2 8.5C1.2 10.5185 2.31126 13.4115 3.98655 16.4277C5.35018 18.8828 7.00839 21.2811 8.5 23.1323C9.99161 21.2811 11.6498 18.8828 13.0135 16.4277ZM9.28309 24.0718C12.6993 19.8836 17 12.8538 17 8.5C17 3.80558 13.1944 0 8.5 0C3.80558 0 0 3.80558 0 8.5C0 12.8538 4.30072 19.8836 7.71691 24.0718C7.98418 24.3995 8.24604 24.7098 8.5 25C8.75396 24.7098 9.01582 24.3995 9.28309 24.0718Z" fill="white"/>
<path fill-rule="evenodd" clip-rule="evenodd" d="M8.5 11.8C10.3225 11.8 11.8 10.3225 11.8 8.5C11.8 6.67746 10.3225 5.2 8.5 5.2C6.67746 5.2 5.2 6.67746 5.2 8.5C5.2 10.3225 6.67746 11.8 8.5 11.8ZM8.5 13C10.9853 13 13 10.9853 13 8.5C13 6.01472 10.9853 4 8.5 4C6.01472 4 4 6.01472 4 8.5C4 10.9853 6.01472 13 8.5 13Z" fill="white"/>
</svg>
