<svg width="22" height="20" viewBox="0 0 22 20" fill="none" xmlns="http://www.w3.org/2000/svg">
<path d="M12.3457 3.27763C11.9304 3.67301 11.595 4.13889 11.3465 4.66447L12.3457 3.27763ZM12.3457 3.27763C13.1682 2.49227 14.2274 2.06196 15.3289 2.06196C17.7851 2.06196 19.7811 4.16111 19.7811 6.74869C19.7811 8.59665 19.2485 10.0222 17.9468 11.6215L12.3457 3.27763ZM10.8954 3.24385C10.6932 2.94793 10.4752 2.65491 10.2086 2.40056L10.2085 2.40053C9.1778 1.41781 7.84547 0.875 6.46052 0.875C3.3767 0.875 0.875 3.51867 0.875 6.74965C0.875 8.8791 1.52376 10.6016 2.9814 12.3924C4.0443 13.6985 5.87819 15.3107 7.46783 16.613C9.03313 17.8954 10.3706 18.8845 10.5231 18.9973L10.529 19.0017C10.5291 19.0018 10.5293 19.0019 10.5294 19.002C10.6412 19.0861 10.7702 19.125 10.8953 19.125C11.0203 19.125 11.1497 19.0865 11.2618 19.0015L11.2676 18.9973C11.4206 18.8841 12.7577 17.8953 14.3225 16.6133C15.9121 15.311 17.746 13.6988 18.8092 12.3924C20.2668 10.602 20.9156 8.8791 20.9156 6.74965C20.9156 3.51863 18.4126 0.875 15.3289 0.875C13.9435 0.875 12.6127 1.41946 11.5821 2.40174C11.3155 2.65555 11.0976 2.94829 10.8954 3.24385Z" fill="white" stroke="white" stroke-width="0.25"/>
</svg>
