<svg width="24" height="24" viewBox="0 0 24 24" fill="none" xmlns="http://www.w3.org/2000/svg">
<path d="M18 7.2C18.6627 7.2 19.2 6.66274 19.2 6C19.2 5.33726 18.6627 4.8 18 4.8C17.3373 4.8 16.8 5.33726 16.8 6C16.8 6.66274 17.3373 7.2 18 7.2Z" fill="white"/>
<path d="M12 6C8.72049 6 6 8.67081 6 12C6 15.3292 8.6708 18 12 18C15.2795 18 18 15.3292 18 12C18.0124 8.67081 15.2919 6 12 6ZM12 15.8137C9.88818 15.8137 8.14906 14.0745 8.14906 11.9627C8.14906 9.85093 9.88818 8.1118 12 8.1118C14.1118 8.1118 15.8509 9.85093 15.8509 11.9627C15.8509 14.0745 14.1118 15.8137 12 15.8137Z" fill="white"/>
<path d="M16.7878 0H7.21224C3.23265 0 0 3.23926 0 7.22699V16.773C0 20.7607 3.23265 24 7.21224 24H16.7878C20.7673 24 24 20.7975 24 16.8221V7.22699C24 3.23926 20.7673 0 16.7878 0ZM21.7347 16.8221C21.7347 19.5583 19.5184 21.7791 16.7878 21.7791H7.21224C4.48163 21.7791 2.26531 19.5583 2.26531 16.8221V7.22699C2.26531 4.4908 4.48163 2.26994 7.21224 2.26994H16.7878C19.5184 2.26994 21.7347 4.4908 21.7347 7.22699V16.8221Z" fill="white"/>
</svg>
