<svg width="219" height="60" viewBox="0 0 219 60" fill="none" xmlns="http://www.w3.org/2000/svg">
<path fill-rule="evenodd" clip-rule="evenodd" d="M65.334 28.5045L56.001 24.953V54.6713L65.334 51.1199V28.5045ZM27.999 54.6713L18.666 51.1199V28.5015L27.999 24.95V54.6713ZM9.333 22.4116V47.5684L0 44.017V15.986L42 0L84 15.986V44.017L74.664 47.5684V22.4116L46.665 11.7542V58.2228L41.997 60L37.332 58.2258V11.7542L9.333 22.4116ZM144.145 33V28.104H132.433V24.008H142.385V19.272H132.433V15.496H143.729V10.6H126.161V33H144.145ZM142.193 3.91199H136.113L131.825 8.77599H136.177L142.193 3.91199ZM117.76 11.624C116.267 10.9413 114.507 10.6 112.48 10.6H102.24V33H108.576V27.144H112.48C114.507 27.144 116.267 26.8133 117.76 26.152C119.253 25.4693 120.405 24.5093 121.216 23.272C122.027 22.0347 122.432 20.5733 122.432 18.888C122.432 17.2027 122.027 15.7413 121.216 14.504C120.405 13.2453 119.253 12.2853 117.76 11.624ZM115.04 21.32C114.379 21.8747 113.397 22.152 112.096 22.152H108.576V15.592H112.096C113.397 15.592 114.379 15.88 115.04 16.456C115.701 17.032 116.032 17.8427 116.032 18.888C116.032 19.9333 115.701 20.744 115.04 21.32ZM148.301 10.6H154.637V27.976H165.325V33H148.301V10.6ZM179.064 10.6H168.472V33H179.064C181.518 33 183.694 32.5413 185.592 31.624C187.491 30.7067 188.963 29.4053 190.008 27.72C191.054 26.0347 191.576 24.0613 191.576 21.8C191.576 19.5387 191.054 17.5653 190.008 15.88C188.963 14.1947 187.491 12.8933 185.592 11.976C183.694 11.0587 181.518 10.6 179.064 10.6ZM183.416 26.312C182.264 27.4 180.728 27.944 178.809 27.944H174.809V15.656H178.809C180.728 15.656 182.264 16.2 183.416 17.288C184.59 18.376 185.176 19.88 185.176 21.8C185.176 23.72 184.59 25.224 183.416 26.312ZM200.773 28.648L199.013 33H192.549L202.438 10.6H208.677L218.597 33H212.005L210.245 28.648H200.773ZM208.389 23.976L205.509 16.808L202.629 23.976H208.389ZM123.376 40.128H122.24V52H123.376V40.128ZM106.912 52.096C106.08 52.096 105.28 51.9627 104.512 51.696C103.755 51.4293 103.168 51.0773 102.752 50.64L103.216 49.728C103.621 50.1333 104.16 50.464 104.832 50.72C105.504 50.9653 106.197 51.088 106.912 51.088C107.915 51.088 108.667 50.9067 109.168 50.544C109.669 50.1707 109.92 49.6907 109.92 49.104C109.92 48.656 109.781 48.2987 109.504 48.032C109.237 47.7653 108.907 47.5627 108.512 47.424C108.117 47.2747 107.568 47.1147 106.864 46.944C106.021 46.7307 105.349 46.528 104.848 46.336C104.347 46.1333 103.915 45.8293 103.552 45.424C103.2 45.0187 103.024 44.4693 103.024 43.776C103.024 43.2107 103.173 42.6987 103.472 42.24C103.771 41.7707 104.229 41.3973 104.848 41.12C105.467 40.8427 106.235 40.704 107.152 40.704C107.792 40.704 108.416 40.7947 109.024 40.976C109.643 41.1467 110.176 41.3867 110.624 41.696L110.224 42.64C109.755 42.3307 109.253 42.1013 108.72 41.952C108.187 41.792 107.664 41.712 107.152 41.712C106.171 41.712 105.429 41.904 104.928 42.288C104.437 42.6613 104.192 43.1467 104.192 43.744C104.192 44.192 104.325 44.5547 104.592 44.832C104.869 45.0987 105.211 45.3067 105.616 45.456C106.032 45.5947 106.587 45.7493 107.28 45.92C108.101 46.1227 108.763 46.3253 109.264 46.528C109.776 46.72 110.208 47.0187 110.56 47.424C110.912 47.8187 111.088 48.3573 111.088 49.04C111.088 49.6053 110.933 50.1227 110.624 50.592C110.325 51.0507 109.861 51.4187 109.232 51.696C108.603 51.9627 107.829 52.096 106.912 52.096ZM119.684 51.056V52H112.836V51.248L118.132 44.544H112.932V43.584H119.588V44.336L114.292 51.056H119.684ZM130.297 52.08C129.486 52.08 128.755 51.8987 128.105 51.536C127.454 51.1627 126.942 50.6507 126.569 50C126.195 49.3493 126.009 48.6133 126.009 47.792C126.009 46.9707 126.195 46.2347 126.569 45.584C126.942 44.9333 127.454 44.4267 128.105 44.064C128.755 43.7013 129.486 43.52 130.297 43.52C131.107 43.52 131.838 43.7013 132.489 44.064C133.139 44.4267 133.646 44.9333 134.009 45.584C134.382 46.2347 134.569 46.9707 134.569 47.792C134.569 48.6133 134.382 49.3493 134.009 50C133.646 50.6507 133.139 51.1627 132.489 51.536C131.838 51.8987 131.107 52.08 130.297 52.08ZM130.297 51.072C130.894 51.072 131.427 50.9387 131.897 50.672C132.377 50.3947 132.75 50.0053 133.017 49.504C133.283 49.0027 133.417 48.432 133.417 47.792C133.417 47.152 133.283 46.5813 133.017 46.08C132.75 45.5787 132.377 45.1947 131.897 44.928C131.427 44.6507 130.894 44.512 130.297 44.512C129.699 44.512 129.161 44.6507 128.681 44.928C128.211 45.1947 127.838 45.5787 127.561 46.08C127.294 46.5813 127.161 47.152 127.161 47.792C127.161 48.432 127.294 49.0027 127.561 49.504C127.838 50.0053 128.211 50.3947 128.681 50.672C129.161 50.9387 129.699 51.072 130.297 51.072ZM145 50.976V43.584H143.912V45.2C143.56 44.656 143.096 44.24 142.52 43.952C141.944 43.664 141.298 43.52 140.584 43.52C139.784 43.52 139.064 43.6907 138.424 44.032C137.784 44.3733 137.277 44.8533 136.904 45.472C136.541 46.0907 136.36 46.7947 136.36 47.584C136.36 48.3733 136.541 49.0827 136.904 49.712C137.277 50.3307 137.784 50.816 138.424 51.168C139.074 51.5093 139.794 51.68 140.584 51.68C141.277 51.68 141.906 51.5413 142.472 51.264C143.048 50.9867 143.512 50.5813 143.864 50.048V51.12C143.864 52.1653 143.613 52.9333 143.112 53.424C142.61 53.9253 141.826 54.176 140.76 54.176C140.12 54.176 139.506 54.0747 138.92 53.872C138.344 53.6693 137.853 53.3867 137.448 53.024L136.872 53.888C137.309 54.2933 137.874 54.608 138.568 54.832C139.272 55.0667 140.013 55.184 140.792 55.184C142.2 55.184 143.25 54.8373 143.944 54.144C144.648 53.4613 145 52.4053 145 50.976ZM142.344 50.288C141.853 50.544 141.304 50.672 140.696 50.672C140.088 50.672 139.538 50.544 139.048 50.288C138.568 50.0213 138.189 49.6533 137.912 49.184C137.645 48.7147 137.512 48.1813 137.512 47.584C137.512 46.9867 137.645 46.4533 137.912 45.984C138.189 45.5147 138.568 45.152 139.048 44.896C139.538 44.64 140.088 44.512 140.696 44.512C141.314 44.512 141.864 44.6453 142.344 44.912C142.834 45.168 143.213 45.5307 143.48 46C143.757 46.4587 143.896 46.9867 143.896 47.584C143.896 48.1813 143.757 48.7147 143.48 49.184C143.213 49.6533 142.834 50.0213 142.344 50.288ZM155.825 48.144H148.785C148.849 49.0187 149.185 49.728 149.793 50.272C150.401 50.8053 151.169 51.072 152.097 51.072C152.619 51.072 153.099 50.9813 153.537 50.8C153.974 50.608 154.353 50.3307 154.673 49.968L155.313 50.704C154.939 51.152 154.47 51.4933 153.905 51.728C153.35 51.9627 152.737 52.08 152.065 52.08C151.201 52.08 150.433 51.8987 149.761 51.536C149.099 51.1627 148.582 50.6507 148.209 50C147.835 49.3493 147.649 48.6133 147.649 47.792C147.649 46.9707 147.825 46.2347 148.177 45.584C148.539 44.9333 149.03 44.4267 149.649 44.064C150.278 43.7013 150.982 43.52 151.761 43.52C152.539 43.52 153.238 43.7013 153.857 44.064C154.475 44.4267 154.961 44.9333 155.313 45.584C155.665 46.224 155.841 46.96 155.841 47.792L155.825 48.144ZM151.761 44.496C150.95 44.496 150.267 44.7573 149.713 45.28C149.169 45.792 148.859 46.464 148.785 47.296H154.753C154.678 46.464 154.363 45.792 153.809 45.28C153.265 44.7573 152.582 44.496 151.761 44.496ZM165.273 44.448C164.654 43.8293 163.817 43.52 162.761 43.52C162.035 43.52 161.395 43.664 160.841 43.952C160.297 44.2293 159.87 44.624 159.561 45.136V43.584H158.473V52H159.609V47.584C159.609 46.6347 159.87 45.8933 160.393 45.36C160.926 44.816 161.646 44.544 162.553 44.544C163.363 44.544 163.987 44.7733 164.425 45.232C164.862 45.6907 165.081 46.3573 165.081 47.232V52H166.217V47.12C166.217 45.9467 165.902 45.056 165.273 44.448ZM178.464 43.52C179.254 43.52 179.968 43.7013 180.608 44.064C181.248 44.416 181.75 44.9173 182.112 45.568C182.475 46.2187 182.656 46.96 182.656 47.792C182.656 48.6347 182.475 49.3813 182.112 50.032C181.75 50.6827 181.248 51.1893 180.608 51.552C179.979 51.904 179.264 52.08 178.464 52.08C177.782 52.08 177.163 51.9413 176.608 51.664C176.064 51.376 175.616 50.96 175.264 50.416V55.104H174.128V43.584H175.216V45.248C175.558 44.6933 176.006 44.2667 176.56 43.968C177.126 43.6693 177.76 43.52 178.464 43.52ZM178.384 51.072C178.971 51.072 179.504 50.9387 179.984 50.672C180.464 50.3947 180.838 50.0053 181.104 49.504C181.382 49.0027 181.52 48.432 181.52 47.792C181.52 47.152 181.382 46.5867 181.104 46.096C180.838 45.5947 180.464 45.2053 179.984 44.928C179.504 44.6507 178.971 44.512 178.384 44.512C177.787 44.512 177.248 44.6507 176.768 44.928C176.299 45.2053 175.926 45.5947 175.648 46.096C175.382 46.5867 175.248 47.152 175.248 47.792C175.248 48.432 175.382 49.0027 175.648 49.504C175.926 50.0053 176.299 50.3947 176.768 50.672C177.248 50.9387 177.787 51.072 178.384 51.072ZM185.58 48.144H192.62L192.636 47.792C192.636 46.96 192.46 46.224 192.108 45.584C191.756 44.9333 191.271 44.4267 190.652 44.064C190.033 43.7013 189.335 43.52 188.556 43.52C187.777 43.52 187.073 43.7013 186.444 44.064C185.825 44.4267 185.335 44.9333 184.972 45.584C184.62 46.2347 184.444 46.9707 184.444 47.792C184.444 48.6133 184.631 49.3493 185.004 50C185.377 50.6507 185.895 51.1627 186.556 51.536C187.228 51.8987 187.996 52.08 188.86 52.08C189.532 52.08 190.145 51.9627 190.7 51.728C191.265 51.4933 191.735 51.152 192.108 50.704L191.468 49.968C191.148 50.3307 190.769 50.608 190.332 50.8C189.895 50.9813 189.415 51.072 188.892 51.072C187.964 51.072 187.196 50.8053 186.588 50.272C185.98 49.728 185.644 49.0187 185.58 48.144ZM186.508 45.28C187.063 44.7573 187.745 44.496 188.556 44.496C189.377 44.496 190.06 44.7573 190.604 45.28C191.159 45.792 191.473 46.464 191.548 47.296H185.58C185.655 46.464 185.964 45.792 186.508 45.28ZM191.228 40.288H189.708L187.516 42.272H188.636L191.228 40.288ZM195.268 40.128H196.404V52H195.268V40.128ZM207.565 52V40.128H206.429V45.184C206.077 44.64 205.624 44.2293 205.069 43.952C204.525 43.664 203.912 43.52 203.229 43.52C202.44 43.52 201.725 43.7013 201.085 44.064C200.445 44.416 199.944 44.9173 199.581 45.568C199.219 46.2187 199.037 46.96 199.037 47.792C199.037 48.624 199.219 49.3653 199.581 50.016C199.944 50.6667 200.445 51.1733 201.085 51.536C201.725 51.8987 202.44 52.08 203.229 52.08C203.933 52.08 204.563 51.9307 205.117 51.632C205.683 51.3333 206.136 50.9013 206.477 50.336V52H207.565ZM204.909 50.672C204.44 50.9387 203.912 51.072 203.325 51.072C202.728 51.072 202.189 50.9387 201.709 50.672C201.24 50.3947 200.867 50.0053 200.589 49.504C200.323 49.0027 200.189 48.432 200.189 47.792C200.189 47.152 200.323 46.5813 200.589 46.08C200.867 45.5787 201.24 45.1947 201.709 44.928C202.189 44.6507 202.728 44.512 203.325 44.512C203.912 44.512 204.44 44.6507 204.909 44.928C205.389 45.1947 205.763 45.5787 206.029 46.08C206.307 46.5813 206.445 47.152 206.445 47.792C206.445 48.432 206.307 49.0027 206.029 49.504C205.763 50.0053 205.389 50.3947 204.909 50.672ZM213.993 43.52C215.092 43.52 215.934 43.7973 216.521 44.352C217.108 44.896 217.401 45.7067 217.401 46.784V52H216.313V50.688C216.057 51.1253 215.678 51.4667 215.177 51.712C214.686 51.9573 214.1 52.08 213.417 52.08C212.478 52.08 211.732 51.856 211.177 51.408C210.622 50.96 210.345 50.368 210.345 49.632C210.345 48.9173 210.601 48.3413 211.113 47.904C211.636 47.4667 212.462 47.248 213.593 47.248H216.265V46.736C216.265 46.0107 216.062 45.4613 215.657 45.088C215.252 44.704 214.66 44.512 213.881 44.512C213.348 44.512 212.836 44.6027 212.345 44.784C211.854 44.9547 211.433 45.1947 211.081 45.504L210.569 44.656C210.996 44.2933 211.508 44.016 212.105 43.824C212.702 43.6213 213.332 43.52 213.993 43.52ZM213.593 51.184C214.233 51.184 214.782 51.04 215.241 50.752C215.7 50.4533 216.041 50.0267 216.265 49.472V48.096H213.625C212.185 48.096 211.465 48.5973 211.465 49.6C211.465 50.0907 211.652 50.48 212.025 50.768C212.398 51.0453 212.921 51.184 213.593 51.184Z" fill="url(#paint0_linear)" style="mix-blend-mode:hard-light"/>
<defs>
<linearGradient id="paint0_linear" x1="5.26568e-05" y1="30" x2="51.051" y2="122.485" gradientUnits="userSpaceOnUse">
<stop offset="0.000503888" stop-color="#3D50BD"/>
<stop offset="1" stop-color="#06A6EC"/>
</linearGradient>
</defs>
</svg>
