<svg width="20" height="20" viewBox="0 0 20 20" fill="none" xmlns="http://www.w3.org/2000/svg">
<path d="M19.3843 17.2625C20.201 16.4078 20.2066 15.3741 19.3928 14.5023C18.4939 13.5368 17.5609 12.6111 16.6166 11.7507C15.7659 10.9754 14.7706 11.0123 13.8801 11.8472C13.3158 12.3782 12.8706 12.8184 12.4821 13.2358C12.4112 13.3125 12.3715 13.3352 12.3687 13.3409C12.3574 13.3381 12.329 13.3295 12.2808 13.3011C9.75701 11.8103 7.92797 9.97018 6.69159 7.6757C6.66891 7.6331 6.65756 7.60755 6.65473 7.59051C6.66607 7.57631 6.68592 7.55075 6.72562 7.511C7.30127 6.96577 7.75782 6.5029 8.16333 6.05139C8.93748 5.19096 8.95166 4.08064 8.20303 3.2912C7.28993 2.3257 6.41936 1.45675 5.5488 0.63324C4.67823 -0.190274 3.59782 -0.212992 2.73293 0.579285C2.60815 0.695713 2.48055 0.809301 2.35294 0.922889C1.50789 1.67825 0.637328 2.45917 0.15242 3.62344L0.121227 3.72567C-0.040409 4.50091 -0.040409 4.99218 0.121227 5.75606L0.129734 5.7873C0.827322 8.3771 2.04952 10.7483 3.76229 12.8383C6.581 16.2772 9.75701 18.495 13.4661 19.6195C13.6618 19.6791 13.8575 19.7331 14.0531 19.7899L14.3197 19.8637L14.3736 19.8751C14.7904 19.9517 15.0995 20 15.4001 20C15.6752 20 15.9446 19.9602 16.2848 19.8637L16.3472 19.841C17.4446 19.3895 18.1819 18.5773 18.8965 17.7907C19.0582 17.6118 19.2198 17.4357 19.3843 17.2625ZM18.5648 16.4759C18.3918 16.6548 18.2245 16.8423 18.0572 17.0268C17.4078 17.7424 16.7953 18.4211 15.9474 18.7789C15.522 18.8954 15.315 18.8925 14.6061 18.7619L14.3622 18.6937C14.1751 18.6398 13.9851 18.5887 13.7979 18.5319C10.3071 17.4727 7.31262 15.3741 4.64137 12.117C3.03351 10.1576 1.88788 7.93411 1.22999 5.50617C1.10806 4.92687 1.10522 4.59178 1.22149 4.01248C1.60998 3.1123 2.33876 2.46201 3.10724 1.77196C3.23768 1.65553 3.36813 1.53626 3.49857 1.41984C3.91826 1.03648 4.33511 1.04784 4.76897 1.45959C5.62536 2.26891 6.47891 3.1265 7.38067 4.07496C7.8429 4.56055 7.53947 5.04613 7.31829 5.29319C6.93547 5.71914 6.49876 6.16214 5.9458 6.68464C5.35597 7.24122 5.48358 7.82336 5.69342 8.2124C7.03188 10.6943 8.99704 12.6793 11.7051 14.278C12.1021 14.5137 12.7033 14.6557 13.3073 14.0082C13.6788 13.6107 14.1042 13.1876 14.6515 12.6736C15.1789 12.1795 15.5107 12.2817 15.8481 12.5884C16.7697 13.4289 17.6828 14.332 18.5591 15.2747C18.9674 15.7092 18.9674 16.0557 18.5648 16.4759Z" fill="black"/>
</svg>
