<svg width="24" height="24" viewBox="0 0 24 24" fill="none" xmlns="http://www.w3.org/2000/svg">
<path d="M20.2551 19.3347C20.2382 19.3573 20.2199 19.3788 20.2004 19.3992C20.2002 19.3994 20.2 19.3996 20.1999 19.3998L20.1638 19.3652C19.1336 20.5093 17.8745 21.4241 16.4681 22.0502C15.0617 22.6764 13.5394 23 11.9999 23C10.4604 23 8.93812 22.6764 7.53172 22.0502C6.12532 21.4241 4.86623 20.5093 3.8361 19.3652L20.2551 19.3347ZM20.2551 19.3347C22.0523 17.3189 23.0469 14.7134 23.05 12.0127C23.0531 9.31225 22.0646 6.70464 20.2723 4.68482C20.2507 4.6545 20.2264 4.62614 20.1999 4.60005C19.1655 3.45136 17.9012 2.53285 16.4891 1.90405C15.0765 1.27505 13.5474 0.95 12.0011 0.95C10.4548 0.95 8.92576 1.27505 7.51315 1.90405C6.10132 2.53272 4.83731 3.45098 3.80303 4.59934C3.77482 4.62505 3.74949 4.65374 3.72747 4.68491C1.93817 6.70145 0.95 9.30392 0.95 11.9999C0.95 14.696 1.9382 17.2985 3.72756 19.315C3.74918 19.3454 3.77342 19.3737 3.79999 19.3998L20.2551 19.3347ZM12.5282 16.7335V12.5282H16.7314C16.6951 14.0814 16.46 15.6236 16.0318 17.1171C14.8774 16.8867 13.705 16.7584 12.5282 16.7335ZM16.7556 5.62508C16.3647 4.46119 15.7522 3.38436 14.9524 2.4538C16.4583 2.92133 17.8327 3.73878 18.9629 4.83979C18.2525 5.1679 17.5137 5.43075 16.7556 5.62508ZM9.04703 2.45412C8.24521 3.38602 7.63133 4.46487 7.23983 5.63114C6.48329 5.4369 5.74596 5.17442 5.03689 4.84692C6.16621 3.74348 7.54058 2.92367 9.04703 2.45412ZM5.03689 19.1601C5.74596 18.8326 6.48329 18.5701 7.23983 18.3759C7.63133 19.5422 8.24521 20.621 9.04702 21.5529C7.54058 21.0834 6.16621 20.2635 5.03689 19.1601ZM14.9524 21.5463C15.7514 20.6178 16.3638 19.5434 16.7556 18.3819C17.5136 18.5763 18.2524 18.8391 18.9628 19.1672C17.8319 20.2657 16.4576 21.0807 14.9524 21.5463ZM4.28924 18.3486C2.92704 16.7027 2.1317 14.6616 2.02104 12.5282H6.21171C6.24185 14.1641 6.47862 15.7897 6.91638 17.3662C6.00916 17.6023 5.12877 17.9315 4.28924 18.3486ZM2.00916 11.4717C2.12317 9.33687 2.9227 7.2956 4.28916 5.65119C5.12872 6.06834 6.00914 6.39756 6.91638 6.63361C6.47862 8.21017 6.24185 9.83573 6.21171 11.4717H2.00916ZM19.7107 5.65119C21.0772 7.2956 21.8767 9.33687 21.9907 11.4717H17.7881C17.758 9.83573 17.5212 8.21016 17.0835 6.63361C17.9907 6.39755 18.8711 6.06834 19.7107 5.65119ZM11.4717 2.07203V6.20978C10.4064 6.18743 9.345 6.07504 8.29871 5.87378C8.68837 4.83391 9.17107 3.95549 9.71585 3.29999C10.253 2.65362 10.8482 2.22679 11.4717 2.07203ZM7.26848 11.4717C7.3048 9.91612 7.54057 8.37165 7.97002 6.87611C9.12355 7.10852 10.2953 7.23906 11.4717 7.26621V11.4717H7.26848ZM11.4717 12.5282V16.7335C10.2955 16.7584 9.12377 16.8866 7.97004 17.1167C7.54119 15.6234 7.30542 14.0814 7.2685 12.5282H11.4717ZM11.4717 17.7902V21.9278C10.8482 21.7731 10.253 21.3462 9.71583 20.7007C9.17106 20.0461 8.68838 19.1695 8.29873 18.1331C9.34481 17.9295 10.4062 17.8148 11.4717 17.7902ZM12.5282 21.9206V17.7901C13.5934 17.8124 14.6548 17.9248 15.7011 18.1261C15.3114 19.1624 14.8288 20.039 14.284 20.6936C13.7468 21.3391 13.1517 21.7659 12.5282 21.9206ZM12.5282 11.4717V7.26631C13.7044 7.24146 14.8761 7.11326 16.0298 6.88319C16.4587 8.37645 16.6944 9.9185 16.7314 11.4717H12.5282ZM15.7011 5.86674C14.655 6.07032 13.5936 6.18504 12.5282 6.20967V2.07203C13.1517 2.22679 13.7468 2.65361 14.284 3.29912C14.8288 3.95373 15.3115 4.83037 15.7011 5.86674ZM19.7107 18.3487C18.8711 17.9315 17.9907 17.6023 17.0835 17.3662C17.5212 15.7897 17.758 14.1641 17.7881 12.5282H21.9907C21.8767 14.663 21.0772 16.7043 19.7107 18.3487Z" fill="white" stroke="white" stroke-width="0.1"/>
</svg>
