<svg width="26" height="22" viewBox="0 0 26 22" fill="none" xmlns="http://www.w3.org/2000/svg">
<path d="M25.8047 2.70509C24.9713 3.10922 24.0337 3.31128 23.1482 3.47294C23.591 3.41905 24.177 2.61079 24.4244 2.30095C24.815 1.78905 25.1145 1.27715 25.2578 0.670956C25.2578 0.617072 25.3099 0.563188 25.2578 0.522775C25.2057 0.522775 25.1536 0.522775 25.1145 0.522775C24.1249 1.08856 23.0961 1.49269 22.0153 1.74864C21.9112 1.74864 21.8721 1.74864 21.82 1.69476C21.7158 1.58699 21.6247 1.49269 21.5205 1.38492C21.0778 0.980791 20.5829 0.670956 19.997 0.415006C19.2547 0.105172 18.4734 -0.0430096 17.6791 0.0108746C16.9368 0.0647589 16.1555 0.266825 15.5175 0.670956C14.8273 1.0212 14.2413 1.5331 13.7465 2.15277C13.2517 2.75897 12.861 3.52682 12.7178 4.33508C12.5225 5.10293 12.5746 5.85731 12.6657 6.62516C12.6657 6.77335 12.6657 6.77335 12.5615 6.77335C8.32946 6.11326 4.78754 4.53715 1.93578 1.18286C1.79254 1.03467 1.74045 1.03467 1.63628 1.18286C0.412231 3.12269 0.998204 6.22103 2.57384 7.79715C2.76916 7.99921 3.01658 8.20128 3.21191 8.40334C3.10773 8.40334 2.07901 8.29558 1.14144 7.79715C0.998204 7.68938 0.946117 7.74326 0.946117 7.90492C0.946117 8.10698 0.94612 8.30905 0.998207 8.51111C1.24562 10.4914 2.57384 12.283 4.3448 12.9835C4.54013 13.0913 4.78754 13.1317 5.03495 13.1856C4.6443 13.2933 4.20156 13.3338 3.01658 13.2395C2.87334 13.1856 2.82126 13.2933 2.87334 13.4415C3.75882 15.9337 5.67302 16.7015 7.10542 17.1056C7.30075 17.1595 7.49607 17.1595 7.6914 17.2134C7.6914 17.2134 7.69139 17.2134 7.63931 17.2673C7.14448 18.0352 5.52978 18.5875 4.73546 18.8434C3.35515 19.3553 1.8316 19.5574 0.360137 19.4092C0.112724 19.3553 0.0606398 19.3553 0.0215745 19.4092C-0.0305126 19.4631 0.0215777 19.517 0.0736648 19.5574C0.373165 19.7594 0.659638 19.9615 1.01123 20.1232C1.94879 20.6351 2.92543 21.0392 3.96717 21.349C9.22796 22.8713 15.1789 21.7532 19.1115 17.6849C22.2107 14.4788 23.2915 10.1007 23.2915 5.68219C23.2915 5.53401 23.4868 5.42624 23.591 5.33194C24.3723 4.72575 25.1666 3.95789 25.7526 3.09575C25.8958 2.89368 26 2.7455 26 2.69162C26 2.59732 25.8958 2.6512 25.8047 2.70509Z" fill="white"/>
</svg>
